HIERARCHY
ROOT Hips
{
	OFFSET -211.153198 91.653587 -35.738949
	CHANNELS 6 Xposition Yposition Zposition Zrotation Yrotation Xrotation 
	JOINT LeftUpLeg
	{
		OFFSET 0.103455 1.857827 10.548507
		CHANNELS 3 Zrotation Yrotation Xrotation
		JOINT LeftLeg
		{
			OFFSET 43.500000 -0.000031 0.000008
			CHANNELS 3 Zrotation Yrotation Xrotation
			JOINT LeftFoot
			{
				OFFSET 42.372192 0.000011 -0.000014
				CHANNELS 3 Zrotation Yrotation Xrotation
				JOINT LeftToe
				{
					OFFSET 17.299997 -0.000002 0.000013
					CHANNELS 3 Zrotation Yrotation Xrotation
					End Site
					{
						OFFSET 0.000000 0.000000 0.000000
					}
				}
			}
		}
	}
	JOINT RightUpLeg
	{
		OFFSET 0.103457 1.857826 -10.548499
		CHANNELS 3 Zrotation Yrotation Xrotation
		JOINT RightLeg
		{
			OFFSET 43.500046 -0.000019 0.000015
			CHANNELS 3 Zrotation Yrotation Xrotation
			JOINT RightFoot
			{
				OFFSET 42.372261 -0.000004 0.000013
				CHANNELS 3 Zrotation Yrotation Xrotation
				JOINT RightToe
				{
					OFFSET 17.299992 -0.000006 0.000004
					CHANNELS 3 Zrotation Yrotation Xrotation
					End Site
					{
						OFFSET 0.000000 0.000000 0.000000
					}
				}
			}
		}
	}
	JOINT Spine
	{
		OFFSET 6.901968 -2.603730 -0.000002
		CHANNELS 3 Zrotation Yrotation Xrotation
		JOINT Spine1
		{
			OFFSET 12.588100 -0.000001 0.000009
			CHANNELS 3 Zrotation Yrotation Xrotation
			JOINT Spine2
			{
				OFFSET 12.343201 0.000005 -0.000005
				CHANNELS 3 Zrotation Yrotation Xrotation
				JOINT Neck
				{
					OFFSET 25.832893 -0.000008 -0.000006
					CHANNELS 3 Zrotation Yrotation Xrotation
					JOINT Head
					{
						OFFSET 11.766606 0.000005 0.000008
						CHANNELS 3 Zrotation Yrotation Xrotation
						End Site
						{
							OFFSET 0.000000 0.000000 0.000000
						}
					}
				}
				JOINT LeftShoulder
				{
					OFFSET 19.745903 -1.480373 6.000100
					CHANNELS 3 Zrotation Yrotation Xrotation
					JOINT LeftArm
					{
						OFFSET 11.284123 -0.000007 -0.000024
						CHANNELS 3 Zrotation Yrotation Xrotation
						JOINT LeftForeArm
						{
							OFFSET 33.000053 0.000004 0.000036
							CHANNELS 3 Zrotation Yrotation Xrotation
							JOINT LeftHand
							{
								OFFSET 25.200006 0.000021 -0.000003
								CHANNELS 3 Zrotation Yrotation Xrotation
								End Site
								{
									OFFSET 0.000000 0.000000 0.000000
								}
							}
						}
					}
				}
				JOINT RightShoulder
				{
					OFFSET 19.746101 -1.480381 -6.000079
					CHANNELS 3 Zrotation Yrotation Xrotation
					JOINT RightArm
					{
						OFFSET 11.284133 -0.000015 -0.000008
						CHANNELS 3 Zrotation Yrotation Xrotation
						JOINT RightForeArm
						{
							OFFSET 33.000099 0.000016 0.000006
							CHANNELS 3 Zrotation Yrotation Xrotation
							JOINT RightHand
							{
								OFFSET 25.199781 0.000142 0.000425
								CHANNELS 3 Zrotation Yrotation Xrotation
								End Site
								{
									OFFSET 0.000000 0.000000 0.000000
								}
							}
						}
					}
				}
			}
		}
	}
}
MOTION
Frames: 4
Frame Time: 0.033333
102.914101 87.184937 62.858318 94.22569699999998 -7.641141000000002 -83.83577 153.666525 -10.885598999999994 175.085438 -67.168408 -1.1707559999999997 10.668916000000003 68.694108 -8.57051 -2.1289629999999993 21.454555 0.00311 1.500000000000003e-05 172.019489 3.653598 -171.811537 -41.229976 6.110409999999999 1.9297949999999993 86.74549900000001 -0.9020310000000002 3.173558 21.454553 -0.0031030000000000003 -9.706282611474204e-20 10.129491999999999 0.530392 0.12734500000000004 10.247936000000001 1.0474500000000004 0.30118900000000004 9.929794000000001 1.0491 0.294851 -17.197190000000006 5.975797000000002 0.08564199999999987 -14.904928000000004 -13.612939999999996 6.794574000000001 176.96349399999997 -74.632944 1.6787830000000008 -35.507681 47.680717 3.1658590000000015 -83.02534099999998 -8.585357000000002 2.6378809999999997 -0.43650899999999987 4.750512 25.803661 -178.66716200000002 81.36332399999993 2.9360449999999974 12.282578000000003 -56.399177000000016 -54.60439100000001 -52.007171 14.429844 -1.777916 6.383135 -1.213298 -33.677706000000015
103.644402 86.741867 62.147549 93.92820800000001 -7.921774999999996 -83.45401800000002 152.069613 -13.368115 172.364291 -70.64843100000002 -0.6562580000000013 11.696480000000001 66.561826 -10.872379 -5.7618920000000005 21.454562 0.003108000000000001 1.7999999999999963e-05 172.198536 4.030695999999999 -171.385852 -42.820303 6.933838999999999 1.6760830000000002 88.13233500000001 -0.914359 2.3752280000000003 21.454555 -0.0030949999999999997 -1.9999999999999457e-06 10.010014 0.5420420000000001 0.070261 10.008520000000003 1.075987 0.187148 9.690364999999998 1.076958 0.180641 -15.470676000000001 6.743408999999998 0.626037 -15.320854999999996 -14.281654000000001 7.776116999999998 176.193418 -73.17782699999998 2.5009220000000005 -32.974312999999995 50.344655 0.9087759999999973 -81.661509 -9.535169999999997 2.644432 -0.138941 3.607156999999999 28.741969000000005 177.259118 80.91824800000002 -1.2010290000000006 -2.0226190000000095 -55.610788999999976 -47.275662999999966 -43.483392 14.234459 -1.5024429999999995 7.911857000000003 -4.530081000000001 -35.006895000000014
103.983597 86.968391 61.248211 93.746334 -8.191422999999988 -84.14981599999999 152.825606 -15.414403000000002 170.554372 -70.83098800000002 -0.9977130000000005 12.394057000000004 67.41503900000001 -11.648124 -6.623348000000003 21.454557 0.003102 1.999999999999999e-05 173.369599 3.8919079999999995 -170.87957099999997 -42.09323700000001 6.539249 1.1969560000000006 88.04378200000001 -0.6392560000000003 1.9973270000000003 21.454551000000002 -0.003088000000000001 -2.000000000000156e-06 9.781074 0.5939059999999999 -0.02523099999999999 9.549791999999998 1.187885 -0.001364999999999999 9.231623999999998 1.1877259999999998 -0.008567999999999996 -13.948479999999998 7.372100999999999 1.7811100000000004 -14.415922000000002 -15.207449000000002 9.213210999999998 178.240439 -72.32433999999996 0.4184999999999993 -29.39165300000001 54.71289200000002 -0.0547729999999991 -77.40999 -12.143916000000003 2.6419080000000013 0.07434199999999999 1.1893280000000002 30.307001 173.72598400000004 80.59769400000006 -4.792026000000006 -15.976475000000024 -56.134572000000006 -35.11252000000001 -31.404933000000003 13.678103000000004 -1.1723990000000006 11.140667 -6.860204000000001 -42.15363599999999
104.070099 87.770393 60.315819 93.45953399999999 -8.365043999999997 -85.740642 155.49368200000004 -16.779696999999995 169.077044 -67.99419199999998 -1.6995710000000004 10.178201999999999 72.66789899999998 -10.080936999999997 -8.249752999999998 21.454562 0.003108000000000001 1.8999999999999947e-05 175.059033 3.493608 -172.473983 -39.47709 6.378500000000002 1.4694050000000003 86.60275499999999 -0.7837180000000002 2.0909610000000005 21.454551 -0.003084000000000001 9.99999999999909e-07 9.449222 0.6233489999999999 -0.0047050000000000095 8.886313 1.24525 0.03843000000000003 8.568140000000001 1.2453109999999998 0.030907000000000004 -11.585573999999998 7.9404689999999984 2.8386940000000007 -15.056400999999997 -16.510405 10.841650999999999 -178.429007 -72.029126 -2.9990800000000006 -26.16039000000001 59.15542800000001 0.14575799999999461 -70.12139900000001 -15.770818 2.5858920000000003 -0.0455819999999999 -2.41101 32.029424000000006 174.837529 79.2299760000001 -3.698972000000009 -27.51962399999999 -56.376084 -17.156155 -20.306618999999994 13.310725999999999 -0.9696139999999994 14.325250999999996 -1.8912920000000015 -54.24938199999998
